<?xml version="1.0" encoding="UTF-8"?><!DOCTYPE svg PUBLIC "-//W3C//DTD SVG 1.1//EN" "http://www.w3.org/Graphics/SVG/1.1/DTD/svg11.dtd"><svg xmlns="http://www.w3.org/2000/svg" xmlns:xlink="http://www.w3.org/1999/xlink"><defs/><symbol id="arrow-down" viewBox="0 0 24 24">
<path fill-rule="evenodd" clip-rule="evenodd" d="M12 17.75C11.8011 17.75 11.6103 17.671 11.4697 17.5303L4.46967 10.5303C4.17678 10.2374 4.17678 9.76256 4.46967 9.46967C4.76256 9.17677 5.23744 9.17677 5.53033 9.46967L12 15.9393L18.4697 9.46967C18.7626 9.17678 19.2374 9.17678 19.5303 9.46967C19.8232 9.76256 19.8232 10.2374 19.5303 10.5303L12.5303 17.5303C12.3897 17.671 12.1989 17.75 12 17.75Z" fill="black"/>
</symbol><symbol id="star" viewBox="0 0 24 24">
<path fill-rule="evenodd" clip-rule="evenodd" d="M10.4502 3.83186C11.1752 2.72271 12.8248 2.72271 13.5498 3.83186L15.672 7.07878C15.7076 7.1333 15.7628 7.17268 15.8265 7.18914L19.6247 8.16922C20.9221 8.50402 21.4319 10.0458 20.5825 11.0661L18.0959 14.0529C18.0542 14.103 18.0331 14.1668 18.0369 14.2315L18.2621 18.0841C18.339 19.4002 17.0044 20.353 15.7545 19.8745L12.0955 18.4735C12.0341 18.45 11.9659 18.45 11.9045 18.4735L8.24552 19.8745C6.99562 20.3531 5.66102 19.4002 5.73793 18.0841L5.96311 14.2315C5.96689 14.1668 5.94582 14.103 5.90407 14.0529L3.41754 11.0661C2.56814 10.0458 3.07791 8.50402 4.37535 8.16922L8.17347 7.18914C8.23724 7.17268 8.2924 7.1333 8.32804 7.07878L10.4502 3.83186ZM12.2214 4.67034C12.1178 4.51188 11.8822 4.51189 11.7786 4.67033L9.65641 7.91725C9.40698 8.29888 9.02085 8.57457 8.57444 8.68976L4.77632 9.66985C4.59097 9.71767 4.51815 9.93793 4.63949 10.0837L7.12602 13.0705C7.41827 13.4215 7.56576 13.8676 7.5393 14.3204L7.31413 18.1731C7.30314 18.3611 7.4938 18.4972 7.67235 18.4288L11.3313 17.0278C11.7614 16.8632 12.2386 16.8632 12.6687 17.0278L16.3277 18.4288C16.5062 18.4972 16.6969 18.3611 16.6859 18.1731L16.4607 14.3204C16.4342 13.8676 16.5817 13.4215 16.874 13.0705L19.3605 10.0837C19.4819 9.93793 19.409 9.71767 19.2237 9.66985L15.4256 8.68976C14.9792 8.57457 14.593 8.29888 14.3436 7.91725L12.2214 4.67034Z"/>
</symbol></svg>